<svg width="80" height="81" viewBox="0 0 80 81" fill="none" xmlns="http://www.w3.org/2000/svg">
<g clip-path="url(#clip0_184_635)">
<path d="M13.2258 37.2121C12.7411 37.2121 12.3477 36.8187 12.3477 36.334V31.9372C12.3477 24.2703 15.4167 17.1452 20.9902 11.8747C21.3423 11.5419 21.8981 11.5568 22.2318 11.9099C22.5646 12.262 22.5497 12.8178 22.1967 13.1515C16.978 18.0866 14.1039 24.7586 14.1039 31.9381V36.3349C14.1039 36.8187 13.7105 37.2121 13.2258 37.2121Z" fill="black"/>
<path d="M66.6843 37.2123C66.1987 37.2123 65.8062 36.8189 65.8062 36.3342V31.9374C65.8062 24.7579 62.9329 18.0868 57.7134 13.1508C57.3612 12.818 57.3454 12.2622 57.6791 11.9092C58.0128 11.5562 58.5687 11.543 58.9208 11.874C64.4934 17.1446 67.5624 24.2697 67.5624 31.9366V36.3333C67.5624 36.8189 67.1699 37.2123 66.6843 37.2123Z" fill="black"/>
<path d="M13.2258 64.3091C10.53 64.3091 8.33643 62.1165 8.33643 59.4206V40.5076C8.33643 37.8117 10.53 35.6182 13.2258 35.6182C15.9217 35.6182 18.1152 37.8117 18.1152 40.5076V59.4206C18.1143 62.1165 15.9217 64.3091 13.2258 64.3091ZM13.2258 37.3744C11.4986 37.3744 10.0927 38.7803 10.0927 40.5076V59.4206C10.0927 61.1479 11.4986 62.5529 13.2258 62.5529C14.9531 62.5529 16.359 61.147 16.359 59.4206V40.5076C16.3581 38.7794 14.9531 37.3744 13.2258 37.3744Z" fill="black"/>
<path d="M66.6843 64.3091C63.9885 64.3091 61.7949 62.1165 61.7949 59.4206V40.5076C61.7949 37.8117 63.9885 35.6182 66.6843 35.6182C69.3802 35.6182 71.5737 37.8117 71.5737 40.5076V59.4206C71.5746 62.1165 69.381 64.3091 66.6843 64.3091ZM66.6843 37.3744C64.9562 37.3744 63.5512 38.7803 63.5512 40.5076V59.4206C63.5512 61.1479 64.9571 62.5529 66.6843 62.5529C68.4116 62.5529 69.8175 61.147 69.8175 59.4206V40.5076C69.8184 38.7794 68.4125 37.3744 66.6843 37.3744Z" fill="black"/>
<path d="M55.5891 15.1475C54.9059 15.1475 54.2157 14.9324 53.6195 14.4968C49.631 11.5771 44.9058 10.0342 39.955 10.0342C35.0041 10.0342 30.2789 11.5771 26.2904 14.4968C24.9671 15.4663 23.1801 15.3425 22.0403 14.2018L20.3368 12.4982C19.6834 11.8449 19.3401 10.9422 19.3945 10.0201C19.4499 9.08494 19.9065 8.21384 20.6459 7.63077C26.2 3.25331 32.8773 0.939453 39.955 0.939453C47.0335 0.939453 53.7099 3.25331 59.2632 7.63077C60.0034 8.21472 60.46 9.08582 60.5154 10.021C60.5698 10.9422 60.2265 11.8458 59.5731 12.4982L57.8705 14.2018C57.2435 14.8279 56.4216 15.1475 55.5891 15.1475ZM39.955 8.27794C45.2808 8.27794 50.3642 9.93848 54.6565 13.0795C55.2774 13.5335 56.1063 13.4826 56.6279 12.9601L58.3306 11.2565C58.6335 10.9536 58.7872 10.5514 58.7609 10.1238C58.7354 9.68909 58.522 9.28252 58.1752 9.00942C52.9354 4.87872 46.634 2.6957 39.955 2.6957C33.2759 2.6957 26.9745 4.87872 21.7339 9.00942C21.387 9.28252 21.1736 9.68821 21.1481 10.1238C21.1227 10.5514 21.2764 10.9536 21.5784 11.2565L23.282 12.9601C23.8045 13.4817 24.6343 13.5318 25.2525 13.0795C29.5457 9.93848 34.6291 8.27794 39.955 8.27794Z" fill="black"/>
<path d="M39.9552 79.9709C36.8343 79.9709 34.2957 77.4313 34.2957 74.3114C34.2957 71.1914 36.8343 68.6519 39.9552 68.6519C43.076 68.6519 45.6147 71.1905 45.6147 74.3105C45.6147 77.4305 43.076 79.9709 39.9552 79.9709ZM39.9552 70.4081C37.8029 70.4081 36.0519 72.1591 36.0519 74.3105C36.0519 76.4637 37.8029 78.2146 39.9552 78.2146C42.1075 78.2146 43.8584 76.4637 43.8584 74.3114C43.8584 72.1591 42.1075 70.4081 39.9552 70.4081Z" fill="black"/>
<path d="M56.9038 75.1894H44.7365C44.2509 75.1894 43.8584 74.7969 43.8584 74.3113C43.8584 73.8257 44.2509 73.4332 44.7365 73.4332H56.9029C61.8125 73.4332 65.8063 69.4395 65.8063 64.5299V63.4313C65.8063 62.9457 66.1988 62.5532 66.6844 62.5532C67.17 62.5532 67.5625 62.9457 67.5625 63.4313V64.5299C67.5625 70.4072 62.7811 75.1894 56.9038 75.1894Z" fill="black"/>
<path d="M29.624 50.21H24.4615C24.1331 50.21 23.8319 50.0265 23.6809 49.7341C23.5307 49.4425 23.5553 49.0913 23.7459 48.8226L28.4544 42.2033C28.7968 41.722 28.8451 41.1153 28.5834 40.5787C28.464 40.3337 28.0996 39.7603 27.2987 39.7243L27.2118 39.7226C26.1791 39.7226 25.3388 40.5629 25.3388 41.5956C25.3388 42.0812 24.9454 42.4737 24.4606 42.4737C23.9759 42.4737 23.5825 42.0812 23.5825 41.5956C23.5825 39.5944 25.2106 37.9663 27.2118 37.9663L27.3743 37.9698C28.5861 38.0243 29.6267 38.7118 30.1614 39.8086C30.7006 40.9151 30.5952 42.2226 29.8848 43.2201L26.1625 48.4529H29.6223C30.107 48.4529 30.5004 48.8454 30.5004 49.331C30.5004 49.8166 30.1096 50.21 29.624 50.21Z" fill="black"/>
<path d="M37.9653 50.2102C37.4805 50.2102 37.0871 49.8177 37.0871 49.3321V48.2608H31.8395C31.5102 48.2608 31.209 48.0764 31.0579 47.784C30.9078 47.4907 30.9332 47.1386 31.1255 46.8707L37.2513 38.3327C37.4735 38.0227 37.8704 37.8928 38.234 38.0087C38.5975 38.1255 38.8434 38.4636 38.8434 38.8447V46.5045H39.9261C40.4108 46.5045 40.8042 46.8971 40.8042 47.3827C40.8042 47.8683 40.4108 48.2608 39.9261 48.2608H38.8434V49.3321C38.8434 49.8177 38.45 50.2102 37.9653 50.2102ZM33.5509 46.5054H37.0871V41.5756L33.5509 46.5054Z" fill="black"/>
<path d="M49.2956 61.1822C49.1446 61.1822 48.9918 61.1435 48.8521 61.061C48.4333 60.816 48.2937 60.2777 48.5395 59.8597L53.9154 50.6947H49.2965C48.8109 50.6947 48.4183 50.3022 48.4183 49.8166C48.4183 49.331 48.8109 48.9385 49.2965 48.9385H55.4486C55.763 48.9385 56.0536 49.1071 56.2108 49.3802C56.3671 49.6542 56.3654 49.9887 56.2056 50.2609L50.0534 60.7484C49.8901 61.0276 49.5959 61.1822 49.2956 61.1822Z" fill="black"/>
<path d="M37.9792 61.1825C37.8326 61.1825 37.6851 61.1457 37.5481 61.0693C37.1257 60.8304 36.9773 60.2948 37.2153 59.8724L49.3378 38.4128C49.5775 37.9895 50.1105 37.842 50.5347 38.0799C50.9562 38.3179 51.1054 38.8545 50.8675 39.276L38.745 60.7373C38.5834 61.0227 38.2866 61.1825 37.9792 61.1825Z" fill="black"/>
</g>
<defs>
<clipPath id="clip0_184_635">
<rect width="80" height="80" fill="white" transform="translate(0 0.5)"/>
</clipPath>
</defs>
</svg>
